<svg xmlns="http://www.w3.org/2000/svg" width="130" height="130" viewBox="0 0 130 130" fill="none">
<g clip-path="url(#clip0_161_1834)">
<path d="M130 25.2778V34.9435H0V25.2778C0 21.8352 2.79259 19.0546 6.22315 19.0546H123.765C127.207 19.0546 130 21.8472 130 25.2778Z" fill="#389DF9"/>
<path d="M130 34.9435V91.7222C130 95.1648 127.207 97.9454 123.777 97.9454H6.22315C2.79259 97.9454 0 95.1528 0 91.7222V34.9435H130Z" fill="#F2F2F2"/>
<path d="M8.54629 29.7074C10.0421 29.7074 11.2546 28.4948 11.2546 26.999C11.2546 25.5033 10.0421 24.2907 8.54629 24.2907C7.05051 24.2907 5.83795 25.5033 5.83795 26.999C5.83795 28.4948 7.05051 29.7074 8.54629 29.7074Z" fill="#FF545A"/>
<path d="M17.875 29.7315C19.3708 29.7315 20.5834 28.5189 20.5834 27.0232C20.5834 25.5274 19.3708 24.3148 17.875 24.3148C16.3792 24.3148 15.1667 25.5274 15.1667 27.0232C15.1667 28.5189 16.3792 29.7315 17.875 29.7315Z" fill="#F9D53D"/>
<path d="M27.2037 29.7315C28.6995 29.7315 29.912 28.5189 29.912 27.0232C29.912 25.5274 28.6995 24.3148 27.2037 24.3148C25.7079 24.3148 24.4954 25.5274 24.4954 27.0232C24.4954 28.5189 25.7079 29.7315 27.2037 29.7315Z" fill="#BDF26B"/>
<path d="M116.94 54.1667H57.9583C56.1648 54.1667 54.7083 52.7102 54.7083 50.9167C54.7083 49.1232 56.1648 47.6667 57.9583 47.6667H116.94C118.733 47.6667 120.19 49.1232 120.19 50.9167C120.19 52.7102 118.733 54.1667 116.94 54.1667Z" fill="#2A3647"/>
<path d="M116.94 65H57.9583C56.1648 65 54.7083 63.5435 54.7083 61.75C54.7083 59.9565 56.1648 58.5 57.9583 58.5H116.94C118.733 58.5 120.19 59.9565 120.19 61.75C120.19 63.5435 118.733 65 116.94 65Z" fill="#2A3647"/>
<path d="M87.5694 75.8334H56.5139C55.5148 75.8334 54.7083 75.0269 54.7083 74.0278V71.1389C54.7083 70.1399 55.5148 69.3334 56.5139 69.3334H87.5694C88.5685 69.3334 89.375 70.1399 89.375 71.1389V74.0278C89.375 75.0269 88.5685 75.8334 87.5694 75.8334Z" fill="#EA539B"/>
<path d="M41.4676 87.9305H14.8657C12.8676 87.9305 11.2546 86.3176 11.2546 84.3194V48.5694C11.2546 46.5713 12.8676 44.9583 14.8657 44.9583H41.4676C43.4657 44.9583 45.0787 46.5713 45.0787 48.5694V84.3194C45.0787 86.3176 43.4657 87.9305 41.4676 87.9305Z" fill="#389DF9"/>
<path opacity="0.07" d="M130 25.2778V91.7222C130 95.1648 127.436 97.9454 124.27 97.9454H39.0602C39.9148 97.6806 132.347 101.111 118.456 19.0546H124.258C127.436 19.0546 130 21.8472 130 25.2778Z" fill="black"/>
<path d="M129.94 79.637V112.137H57.3444V79.637C57.3444 75.7491 60.4981 72.5833 64.3861 72.5833H122.886C126.786 72.5833 129.94 75.737 129.94 79.637Z" fill="#99CCFF"/>
<path d="M102.868 112.125H57.3444V111.294C63.2907 104.758 72.3907 94.8157 76.2666 90.5787C77.2898 89.4713 79.0111 89.4111 80.1065 90.4463L99.4861 108.899L102.868 112.125Z" fill="#92E281"/>
<path d="M129.892 112.125H96.5491C97.5241 111.066 98.4991 109.982 99.4861 108.911C103.735 104.253 107.9 99.7027 110.211 97.1749C111.234 96.0675 112.956 96.0074 114.051 97.0425L129.892 112.125Z" fill="#48CC55"/>
<path d="M99.2212 94.6472C103.768 94.6472 107.455 90.961 107.455 86.4139C107.455 81.8667 103.768 78.1805 99.2212 78.1805C94.6741 78.1805 90.9879 81.8667 90.9879 86.4139C90.9879 90.961 94.6741 94.6472 99.2212 94.6472Z" fill="#F9D53D"/>
<path d="M129.94 109.477V122.946C129.94 126.834 126.786 130 122.898 130H64.3981C60.5101 130 57.3564 126.846 57.3564 122.946V109.477H129.94Z" fill="#F2F2F2"/>
<path d="M122.236 125.606H110.572C109.898 125.606 109.356 125.065 109.356 124.391V119.528C109.356 118.854 109.898 118.312 110.572 118.312H122.236C122.91 118.312 123.452 118.854 123.452 119.528V124.391C123.452 125.065 122.91 125.606 122.236 125.606Z" fill="#EA539B"/>
<path d="M102.158 119.383H66.3601C64.9759 119.383 63.8564 118.264 63.8564 116.88V116.711C63.8564 115.327 64.9759 114.207 66.3601 114.207H102.158C103.543 114.207 104.662 115.327 104.662 116.711V116.88C104.662 118.252 103.543 119.383 102.158 119.383Z" fill="#389DF9"/>
<path d="M98.6315 121.911H65.5416C64.6148 121.911 63.8564 122.669 63.8564 123.596C63.8564 124.523 64.6148 125.281 65.5416 125.281H98.6315C99.5583 125.281 100.317 124.523 100.317 123.596C100.317 122.657 99.5583 121.911 98.6315 121.911Z" fill="#2A3647"/>
<path opacity="0.07" d="M129.94 80.5759V122.946C129.94 126.834 127.171 130 123.753 130H85.5231C89.2787 129.651 92.6731 129.049 95.7426 128.218C99.4139 127.231 102.616 125.931 105.408 124.391C108.562 122.645 111.198 120.599 113.389 118.324C113.666 118.035 113.943 117.734 114.207 117.445C115.7 115.772 116.976 113.991 118.059 112.137C119.696 109.32 120.9 106.347 121.755 103.314C125.125 91.3852 123.175 78.6981 122.031 72.5953H123.753C123.801 72.5953 123.861 72.5953 123.909 72.5953C127.256 72.6916 129.94 76.2305 129.94 80.5759Z" fill="black"/>
<path d="M101.954 3.61111C101.954 3.61111 103.603 10.5926 105.119 12.1213C106.636 13.65 113.63 15.287 113.63 15.287C113.63 15.287 106.648 16.9361 105.119 18.4528C103.591 19.9694 101.954 26.963 101.954 26.963C101.954 26.963 100.305 19.9815 98.788 18.4528C97.2713 16.9241 90.2778 15.287 90.2778 15.287C90.2778 15.287 97.2593 13.638 98.788 12.1213C100.317 10.6046 101.954 3.61111 101.954 3.61111Z" fill="#F9D53D"/>
<path d="M39.1204 103.398C39.1204 103.398 40.4324 108.947 41.6361 110.151C42.8398 111.355 48.3889 112.667 48.3889 112.667C48.3889 112.667 42.8398 113.979 41.6361 115.182C40.4324 116.386 39.1204 121.935 39.1204 121.935C39.1204 121.935 37.8084 116.386 36.6046 115.182C35.4009 113.979 29.8519 112.667 29.8519 112.667C29.8519 112.667 35.4009 111.355 36.6046 110.151C37.8084 108.947 39.1204 103.398 39.1204 103.398Z" fill="#F9D53D"/>
<path d="M82.0926 0C82.0926 0 83.4047 5.54907 84.6084 6.75278C85.8121 7.95648 91.3611 9.26852 91.3611 9.26852C91.3611 9.26852 85.8121 10.5806 84.6084 11.7843C83.4047 12.988 82.0926 18.537 82.0926 18.537C82.0926 18.537 80.7806 12.988 79.5769 11.7843C78.3732 10.5806 72.8241 9.26852 72.8241 9.26852C72.8241 9.26852 78.3732 7.95648 79.5769 6.75278C80.7806 5.54907 82.0926 0 82.0926 0Z" fill="#F9D53D"/>
</g>
<defs>
<clipPath id="clip0_161_1834">
<rect width="130" height="130" fill="white"/>
</clipPath>
</defs>
</svg>